HIERARCHY
ROOT Hips
{
 OFFSET 0.000000 0.000000 0.000000
 CHANNELS 6 Xposition Yposition Zposition Yrotation Xrotation Zrotation
 JOINT Chest
 {
  OFFSET 0.000000 9.585900 0.002600
  CHANNELS 3 Yrotation Xrotation Zrotation
  JOINT Chest2
  {
   OFFSET 0.000000 9.601200 -0.005300
   CHANNELS 3 Yrotation Xrotation Zrotation
   JOINT Chest3
   {
    OFFSET 0.000000 9.561800 0.000000
    CHANNELS 3 Yrotation Xrotation Zrotation
    JOINT Chest4
    {
     OFFSET 0.000000 9.552100 0.000000
     CHANNELS 3 Yrotation Xrotation Zrotation
     JOINT Neck
     {
      OFFSET 0.000000 14.453000 0.000000
      CHANNELS 3 Yrotation Xrotation Zrotation
      JOINT Head
      {
       OFFSET 0.000000 8.936500 -0.011300
       CHANNELS 3 Yrotation Xrotation Zrotation
       End Site
       {
        OFFSET 0.000000 17.073600 -0.006000
       }
      }
     }
     JOINT RightCollar
     {
      OFFSET -2.921100 9.558500 0.000000
      CHANNELS 3 Yrotation Xrotation Zrotation
      JOINT RightShoulder
      {
       OFFSET -13.519700 0.000000 0.000000
       CHANNELS 3 Yrotation Xrotation Zrotation
       JOINT RightElbow
       {
        OFFSET 0.000000 -29.696600 0.000000
        CHANNELS 3 Yrotation Xrotation Zrotation
        JOINT RightWrist
        {
         OFFSET 0.000000 -24.004700 0.000000
         CHANNELS 3 Yrotation Xrotation Zrotation
         End Site
         {
          OFFSET 0.000000 -17.728500 0.000000
         }
        }
       }
      }
     }
     JOINT LeftCollar
     {
      OFFSET 2.921100 9.558500 0.000000
      CHANNELS 3 Yrotation Xrotation Zrotation
      JOINT LeftShoulder
      {
       OFFSET 13.519700 0.000000 0.000000
       CHANNELS 3 Yrotation Xrotation Zrotation
       JOINT LeftElbow
       {
        OFFSET 0.000000 -29.696600 0.000000
        CHANNELS 3 Yrotation Xrotation Zrotation
        JOINT LeftWrist
        {
         OFFSET 0.000000 -24.004700 0.000000
         CHANNELS 3 Yrotation Xrotation Zrotation
         End Site
         {
          OFFSET 0.000000 -17.728500 0.000000
         }
        }
       }
      }
     }
    }
   }
  }
 }
 JOINT RightHip
 {
  OFFSET -7.771700 -0.012900 -0.001300
  CHANNELS 3 Yrotation Xrotation Zrotation
  JOINT RightKnee
  {
   OFFSET 0.000000 -40.869800 0.001200
   CHANNELS 3 Yrotation Xrotation Zrotation
   JOINT RightAnkle
   {
    OFFSET 0.000000 -39.717900 0.002100
    CHANNELS 3 Yrotation Xrotation Zrotation
    JOINT RightToe
    {
     OFFSET 0.000000 -4.965400 11.033500
     CHANNELS 3 Yrotation Xrotation Zrotation
     End Site
     {
      OFFSET 0.000000 -1.423100 5.872300
     }
    }
   }
  }
 }
 JOINT LeftHip
 {
  OFFSET 7.771700 -0.012900 -0.001300
  CHANNELS 3 Yrotation Xrotation Zrotation
  JOINT LeftKnee
  {
   OFFSET 0.000000 -40.869800 0.001200
   CHANNELS 3 Yrotation Xrotation Zrotation
   JOINT LeftAnkle
   {
    OFFSET 0.000000 -39.717900 0.002100
    CHANNELS 3 Yrotation Xrotation Zrotation
    JOINT LeftToe
    {
     OFFSET 0.000000 -4.965400 11.033500
     CHANNELS 3 Yrotation Xrotation Zrotation
     End Site
     {
      OFFSET 0.000000 -1.423100 5.872300
     }
    }
   }
  }
 }
}
MOTION
Frames: 13
Frame Time: 0.008333
-147.154231 49.162624 18.412703 176.524009 -31.134835 -4.142198 0.237889 18.847019 2.136609 0.044389 2.192649 0.211192 0.021934 3.658709 0.373941 0.407067 16.351945 1.681991 4.979129 18.332189 -1.964129 9.807853 -1.464767 -5.251786 -1.805655 -2.737444 -3.129851 4.704832 -7.672948 -12.155143 -37.427978 -45.039287 89.365793 2.332887 2.872117 -13.769758 0.200166 -2.560719 2.854850 -6.667769 -2.249852 10.562481 85.083130 -74.535105 -121.593462 3.606917 11.581523 10.601024 -4.952808 -53.384344 -6.315417 -145.148587 81.881368 -132.313832 -29.704369 -3.095810 -3.722012 -0.162750 -12.212295 0.443975 -14.105521 -55.174117 19.688260 -73.739302 64.924674 -78.882331 30.642263 6.697613 16.603515 0.119499 -0.280213 0.072357
-147.157477 49.163673 18.423399 176.477577 -31.138375 -4.120341 0.236750 18.877151 2.143275 0.032717 2.202889 0.216276 0.050334 3.637788 0.359388 0.401237 16.354918 1.683880 4.954314 18.351724 -1.942339 9.779124 -1.473259 -5.250583 -1.825012 -2.720136 -3.102101 4.747976 -7.693076 -12.194691 -37.390197 -45.007758 89.335538 2.352924 2.926514 -13.706450 0.178915 -2.543681 2.888612 -6.643484 -2.188456 10.616054 85.139115 -74.497882 -121.681518 3.633322 11.565035 10.595468 -4.934982 -53.390365 -6.331906 -145.234717 81.898132 -132.387412 -29.680310 -3.082711 -3.735603 -0.224878 -12.226318 0.436756 -14.051709 -55.173949 19.680841 -73.731981 64.920629 -78.869011 30.640959 6.690361 16.607636 0.119638 -0.268427 0.068786
-147.158566 49.161772 18.440406 176.407977 -31.105505 -4.100752 0.279344 18.855280 2.163236 0.004288 2.229837 0.231794 0.048969 3.645230 0.361586 0.398363 16.352019 1.679307 4.943804 18.348999 -1.944335 9.779950 -1.494144 -5.282157 -1.811688 -2.739678 -3.105957 4.775492 -7.677288 -12.206253 -37.356666 -45.003467 89.313069 2.364972 2.981000 -13.654734 0.178652 -2.551447 2.903236 -6.618449 -2.145150 10.648167 85.103520 -74.474107 -121.683430 3.660168 11.545300 10.581268 -4.929709 -53.432639 -6.314754 -145.349501 81.956873 -132.467305 -29.716898 -3.068597 -3.809818 -0.144844 -12.234901 0.432068 -14.020626 -55.210475 19.715704 -73.705803 64.918200 -78.836718 30.649457 6.701584 16.617132 0.111303 -0.266551 0.062195
-147.159585 49.162237 18.454299 176.376438 -31.095405 -4.097125 0.291541 18.858806 2.179968 -0.004385 2.241116 0.237857 0.030045 3.669650 0.376129 0.402412 16.354134 1.677702 4.924105 18.337728 -1.947603 9.731658 -1.513926 -5.277813 -1.795358 -2.777679 -3.125540 4.793718 -7.677706 -12.220030 -37.310536 -44.970422 89.287027 2.377009 3.010225 -13.629998 0.170398 -2.568473 2.915688 -6.599696 -2.099112 10.679915 85.047098 -74.446711 -121.661981 3.686385 11.522191 10.562146 -4.944721 -53.448647 -6.298279 -145.429125 81.991669 -132.533881 -29.706011 -3.044811 -3.848225 -0.168628 -12.252068 0.433135 -14.013760 -55.227486 19.725905 -73.698619 64.926808 -78.818178 30.665339 6.711096 16.620172 0.097577 -0.268086 0.054052
-147.158950 49.163419 18.468007 176.344451 -31.089758 -4.098369 0.289213 18.883405 2.206608 0.020809 2.219004 0.223717 0.002360 3.700642 0.396655 0.398157 16.369461 1.685664 4.904629 18.321193 -1.954799 9.686729 -1.539954 -5.278193 -1.765777 -2.828283 -3.163572 4.801340 -7.667187 -12.218727 -37.260411 -44.944125 89.263394 2.391578 3.015556 -13.624558 0.164409 -2.592357 2.923749 -6.587676 -2.049767 10.712386 84.976053 -74.415933 -121.621491 3.712549 11.497883 10.544128 -4.950780 -53.456864 -6.272928 -145.431964 82.026006 -132.512832 -29.738377 -3.029161 -3.880045 -0.160289 -12.260983 0.428848 -14.018941 -55.234225 19.750940 -73.687503 64.933330 -78.797425 30.673972 6.715034 16.616483 0.087900 -0.264727 0.048689
-147.157714 49.164538 18.482435 176.275351 -31.082201 -4.078535 0.315481 18.898840 2.232169 0.019696 2.223657 0.225581 0.001053 3.710487 0.397874 0.363576 16.421068 1.726389 4.902969 18.270940 -2.008755 9.675443 -1.568063 -5.304497 -1.711890 -2.900655 -3.214333 4.827355 -7.653358 -12.233888 -37.246282 -44.960415 89.251415 2.401750 3.009182 -13.627072 0.191854 -2.655653 2.890899 -6.581602 -1.999804 10.746922 84.916248 -74.384852 -121.587819 3.733855 11.480299 10.525946 -4.960372 -53.473439 -6.224626 -145.436511 82.066574 -132.510457 -29.797981 -3.020922 -3.897651 -0.134495 -12.263467 0.406575 -13.989737 -55.243084 19.778308 -73.687928 64.935041 -78.784497 30.668718 6.715979 16.603015 0.090840 -0.259227 0.047484
-147.155017 49.167028 18.495006 176.229762 -31.085703 -4.072810 0.326123 18.931516 2.258820 0.018529 2.228033 0.227142 -0.003879 3.714829 0.402099 0.345966 16.449626 1.744260 4.897886 18.240379 -2.030814 9.691500 -1.591112 -5.355347 -1.694246 -2.932971 -3.209596 4.887094 -7.645386 -12.282338 -37.247360 -44.981988 89.245116 2.381778 3.040426 -13.613920 0.202252 -2.697998 2.885122 -6.577108 -1.954218 10.783300 84.888427 -74.360887 -121.583912 3.741658 11.472199 10.505655 -4.997271 -53.475344 -6.167212 -145.456959 82.089825 -132.547668 -29.754196 -3.012589 -3.921473 -0.088877 -12.264275 0.386242 -13.978859 -55.239133 19.803671 -73.698173 64.937515 -78.779037 30.658540 6.709054 16.586033 0.098013 -0.247303 0.046127
-147.155047 49.169812 18.506297 176.185363 -31.092596 -4.045440 0.324033 18.964003 2.262253 0.016994 2.232899 0.228567 -0.003849 3.719943 0.405198 0.339236 16.465201 1.754876 4.889921 18.221449 -2.038060 9.674319 -1.620748 -5.370016 -1.672987 -2.963777 -3.224725 4.930770 -7.624771 -12.299293 -37.170963 -44.956386 89.214820 2.412758 3.011681 -13.640149 0.200369 -2.727436 2.888100 -6.571965 -1.914040 10.821141 84.887501 -74.350255 -121.607687 3.738868 11.467504 10.487072 -5.048438 -53.481675 -6.127967 -145.548867 82.117493 -132.678509 -29.716213 -2.998836 -3.938983 -0.098863 -12.273894 0.369394 -13.962146 -55.236779 19.794013 -73.698028 64.957104 -78.775010 30.666896 6.710313 16.574144 0.092705 -0.246983 0.039944
-147.148509 49.170547 18.521777 176.106274 -31.071762 -4.036819 0.362813 18.962412 2.305180 0.015860 2.238479 0.230601 -0.002373 3.725770 0.405462 0.335367 16.480223 1.766641 4.883061 18.202009 -2.042119 9.630512 -1.675588 -5.326267 -1.656893 -2.983878 -3.229438 4.999856 -7.565995 -12.308655 -37.168846 -44.990441 89.207324 2.423159 3.004027 -13.664151 0.194691 -2.756302 2.890839 -6.568075 -1.876799 10.861555 84.887696 -74.348657 -121.634281 3.738235 11.466007 10.476170 -5.074115 -53.509946 -6.063196 -145.444052 82.159183 -132.551915 -29.707389 -2.966188 -4.021317 -0.093204 -12.293617 0.380606 -13.970475 -55.254033 19.863683 -73.702733 64.964294 -78.772750 30.676340 6.707203 16.561945 0.081931 -0.246369 0.036324
-147.144498 49.173375 18.532286 176.059187 -31.074809 -4.024741 0.372317 18.984899 2.324993 0.015366 2.243463 0.232562 0.005356 3.724140 0.401645 0.325475 16.502148 1.784760 4.878574 18.182642 -2.043271 9.628508 -1.705647 -5.344135 -1.635457 -3.004043 -3.238748 5.031363 -7.555244 -12.334927 -37.168377 -45.000825 89.206710 2.400016 3.028302 -13.666732 0.207507 -2.792345 2.869435 -6.566929 -1.858615 10.882580 84.755772 -74.389122 -121.551554 3.747360 11.469162 10.473360 -5.091756 -53.517062 -6.034491 -145.452466 82.173270 -132.565452 -29.667181 -2.929885 -4.027756 -0.099468 -12.324597 0.351978 -13.972351 -55.248483 19.892747 -73.700856 64.971482 -78.768203 30.677122 6.704926 16.550803 0.072580 -0.251696 0.034606
-147.135636 49.176989 18.541311 176.037715 -31.082230 -4.052934 0.343382 19.025651 2.378257 0.014002 2.251842 0.235027 0.054399 3.691435 0.370860 0.317033 16.516865 1.797025 4.873084 18.178185 -2.029842 9.634902 -1.720273 -5.375494 -1.628156 -3.001154 -3.224324 5.049628 -7.566515 -12.370098 -37.101379 -44.932540 89.184777 2.340042 3.046600 -13.675716 0.207018 -2.806335 2.871134 -6.568861 -1.840250 10.904474 84.628496 -74.424250 -121.476904 3.762538 11.475639 10.478511 -5.144220 -53.511652 -5.966785 -145.407002 82.182928 -132.511676 -29.652671 -2.934048 -4.037933 -0.136739 -12.317293 0.342237 -14.037301 -55.227353 19.970202 -73.697282 64.977945 -78.763607 30.684103 6.746738 16.535751 0.076434 -0.297013 0.034352
-147.131910 49.180568 18.548027 175.990828 -31.095110 -4.036536 0.378072 19.040357 2.388518 -0.020953 2.274352 0.254302 0.061643 3.695095 0.370181 0.328028 16.509247 1.787305 4.868941 18.179102 -2.002868 9.629200 -1.755580 -5.373378 -1.621625 -3.000148 -3.210688 5.084435 -7.545548 -12.392124 -37.063489 -44.873550 89.172349 2.345019 3.032267 -13.686745 0.176935 -2.803278 2.932503 -6.597708 -1.788790 10.985128 84.772976 -74.343257 -121.614552 3.777107 11.484489 10.489598 -5.128437 -53.505873 -5.953282 -145.387231 82.196488 -132.480876 -29.689377 -2.920702 -4.042671 -0.155459 -12.330193 0.334011 -14.036718 -55.207804 19.993402 -73.696675 64.984081 -78.760702 30.674576 6.737467 16.521308 0.083673 -0.289015 0.027802
-147.129022 49.184064 18.553371 175.945096 -31.108649 -4.016805 0.382244 19.068835 2.397398 -0.019760 2.277234 0.254823 0.060585 3.706033 0.374227 0.329019 16.525095 1.798034 4.869169 18.163237 -1.986415 9.622446 -1.807365 -5.330619 -1.599294 -3.034810 -3.235592 5.119019 -7.476567 -12.365200 -37.056330 -44.866732 89.163383 2.336742 3.031186 -13.688211 0.168321 -2.835327 2.944058 -6.610241 -1.751622 11.042669 84.800584 -74.307261 -121.663455 3.786897 11.493858 10.494859 -5.117780 -53.503372 -5.944111 -145.426346 82.214436 -132.516950 -29.732384 -2.883814 -4.016000 -0.125794 -12.365317 0.285733 -14.022057 -55.190203 20.004104 -73.689512 64.991294 -78.755836 30.679722 6.732577 16.516300 0.078402 -0.287144 0.022151
